<svg width="2071" height="601" viewBox="0 0 2071 601" fill="none" xmlns="http://www.w3.org/2000/svg">
<path fill-rule="evenodd" clip-rule="evenodd" d="M2065.36 49.5187C2079.71 88.3747 2059.84 131.507 2020.98 145.855C1759.4 242.45 1575.59 240.28 1440.2 238.69C1424.1 238.5 1408.68 238.32 1393.9 238.31C1324.67 238.28 1277.91 242.35 1236.42 259.94C1196.71 276.76 1153.93 309.59 1103.1 382.78C1020.17 502.21 928.732 567.61 827.591 590.58C729.297 612.9 633.759 592.15 549.281 565.36C514.666 554.38 479.677 541.6 446.321 529.41C438.859 526.69 431.48 523.99 424.205 521.35C383.452 506.57 344.86 493.14 306.832 483.04C231.007 462.89 163.844 457.79 99.1873 479.78C59.9714 493.11 17.3691 472.14 4.03214 432.92C-9.30496 393.7 11.6736 351.1 50.889 337.77C154.963 302.37 255.354 314.15 345.353 338.07C390.237 349.99 434.125 365.39 475.35 380.34C483.349 383.24 491.218 386.12 498.981 388.95C532.153 401.06 563.397 412.47 594.634 422.38C671.969 446.91 735.962 457.57 794.367 444.3C849.925 431.68 912.355 394.48 979.9 297.22C1041.57 208.41 1104.67 152.859 1177.88 121.828C1249.31 91.5537 1322.52 88.2797 1393.97 88.3107C1409.53 88.3177 1425.41 88.4937 1441.69 88.6737C1574.35 90.1427 1734.05 91.9107 1969.02 5.14272C2007.88 -9.20628 2051.01 10.6617 2065.36 49.5187Z" fill="#AACCDF"/>
</svg>
